<svg id="svg" version="1.1" xmlns="http://www.w3.org/2000/svg" xmlns:xlink="http://www.w3.org/1999/xlink" width="400" height="484.49931412894375" viewBox="0, 0, 400,484.49931412894375"><g id="svgg"><path id="path0" d="M233.745 0.196 C 233.519 0.263,233.148 0.389,232.922 0.477 C 232.695 0.564,232.420 0.617,232.309 0.594 C 231.893 0.507,229.081 1.903,229.081 2.196 C 229.081 2.364,228.970 2.433,228.834 2.349 C 228.699 2.265,228.207 2.553,227.741 2.988 C 227.275 3.423,226.704 3.852,226.472 3.941 C 226.240 4.030,225.967 4.322,225.866 4.589 C 225.764 4.857,225.418 5.284,225.096 5.538 C 224.314 6.157,222.688 9.246,222.934 9.645 C 223.065 9.855,223.008 9.886,222.767 9.737 C 222.503 9.574,222.451 9.637,222.579 9.969 C 222.676 10.222,222.621 10.425,222.456 10.425 C 222.292 10.425,222.221 10.666,222.298 10.961 C 222.375 11.255,222.300 11.543,222.130 11.599 C 221.227 11.900,222.155 21.125,223.089 21.125 C 223.216 21.125,223.320 21.260,223.320 21.426 C 223.320 22.007,224.205 23.588,224.447 23.438 C 224.660 23.306,224.798 23.655,224.737 24.173 C 224.606 25.275,230.250 29.034,233.152 29.777 C 236.123 30.538,243.073 29.808,243.073 28.735 C 243.073 28.573,243.150 28.518,243.244 28.612 C 243.489 28.857,245.542 27.760,245.542 27.384 C 245.542 27.211,245.623 27.150,245.722 27.250 C 245.991 27.519,246.661 26.870,246.457 26.538 C 246.360 26.381,246.408 26.331,246.563 26.428 C 247.154 26.792,250.730 22.299,250.345 21.677 C 250.249 21.522,250.371 21.319,250.616 21.225 C 250.860 21.131,250.995 20.885,250.916 20.678 C 250.837 20.471,250.872 20.302,250.994 20.302 C 251.525 20.302,251.916 18.054,251.911 15.021 C 251.906 12.139,251.883 11.904,251.520 11.020 C 251.355 10.617,251.177 10.068,251.125 9.800 C 250.853 8.402,249.428 6.260,247.271 4.011 C 246.338 3.039,244.650 1.930,244.368 2.105 C 244.212 2.201,244.165 2.150,244.263 1.992 C 244.909 0.947,236.220 -0.537,233.745 0.196 M294.989 28.177 C 293.883 28.431,293.337 28.679,293.457 28.873 C 293.576 29.067,293.479 29.111,293.183 28.998 C 292.717 28.819,291.358 29.288,291.358 29.628 C 291.358 29.729,291.190 29.813,290.984 29.813 C 290.467 29.813,288.615 30.986,288.615 31.314 C 288.615 31.462,288.497 31.510,288.353 31.421 C 288.011 31.210,283.884 35.336,284.096 35.678 C 284.185 35.822,284.137 35.940,283.989 35.940 C 283.661 35.940,282.487 37.792,282.487 38.309 C 282.487 38.515,282.393 38.683,282.279 38.683 C 282.012 38.683,280.865 41.724,281.058 41.918 C 281.137 41.997,281.057 42.238,280.879 42.452 C 280.039 43.463,280.583 53.498,281.477 53.498 C 281.580 53.498,281.664 53.670,281.664 53.879 C 281.664 54.420,282.333 55.967,282.566 55.967 C 282.674 55.967,282.762 56.131,282.762 56.331 C 282.762 57.994,289.794 64.688,290.853 64.033 C 291.037 63.920,291.094 63.959,290.990 64.126 C 290.789 64.452,291.549 64.830,291.931 64.594 C 292.069 64.509,292.181 64.560,292.181 64.708 C 292.181 65.043,294.819 65.941,295.169 65.725 C 295.311 65.637,295.469 65.693,295.521 65.849 C 296.059 67.462,307.516 65.663,309.114 63.715 C 309.330 63.452,309.417 63.409,309.308 63.620 C 309.167 63.891,309.357 63.856,309.958 63.501 C 310.425 63.225,310.733 62.880,310.642 62.733 C 310.547 62.578,310.622 62.556,310.822 62.680 C 311.050 62.820,311.935 62.112,313.426 60.596 C 317.404 56.552,319.252 51.738,318.966 46.168 C 318.890 44.692,318.820 43.323,318.810 43.125 C 318.801 42.925,318.652 42.853,318.476 42.962 C 318.273 43.087,318.234 43.036,318.369 42.819 C 318.655 42.356,317.976 40.019,317.619 40.239 C 317.452 40.343,317.420 40.279,317.541 40.083 C 317.781 39.694,316.385 36.692,316.059 36.894 C 315.937 36.969,315.854 36.816,315.875 36.554 C 315.895 36.290,315.750 36.111,315.549 36.152 C 315.349 36.194,315.264 36.101,315.359 35.946 C 315.455 35.792,315.402 35.665,315.243 35.665 C 315.083 35.665,314.983 35.511,315.021 35.322 C 315.058 35.134,314.926 35.013,314.726 35.055 C 314.526 35.096,314.443 35.000,314.542 34.840 C 314.758 34.491,311.432 31.214,311.082 31.431 C 310.947 31.514,310.837 31.457,310.837 31.303 C 310.837 30.875,308.427 29.560,308.059 29.788 C 307.866 29.907,307.807 29.872,307.912 29.701 C 308.114 29.375,307.353 28.997,306.971 29.233 C 306.834 29.318,306.722 29.260,306.722 29.105 C 306.722 28.745,303.807 27.885,303.278 28.088 C 303.059 28.172,302.881 28.128,302.881 27.990 C 302.881 27.597,296.896 27.738,294.989 28.177 M192.044 33.937 C 191.818 34.006,191.447 34.133,191.221 34.219 C 190.995 34.305,190.590 34.419,190.321 34.471 C 188.813 34.766,185.364 36.924,185.637 37.401 C 185.739 37.578,185.718 37.628,185.590 37.512 C 185.307 37.255,183.539 38.917,183.539 39.439 C 183.539 39.645,183.438 39.750,183.314 39.674 C 182.779 39.343,180.335 44.386,180.642 45.187 C 180.717 45.382,180.643 45.542,180.478 45.542 C 180.292 45.542,180.240 45.850,180.341 46.354 C 180.435 46.824,180.376 47.245,180.201 47.353 C 179.598 47.726,180.493 54.047,181.148 54.047 C 181.306 54.047,181.364 54.119,181.275 54.207 C 181.028 54.454,181.639 55.987,181.917 55.815 C 182.051 55.732,182.096 55.833,182.017 56.039 C 181.938 56.246,182.173 56.738,182.540 57.134 C 182.907 57.530,183.155 57.905,183.092 57.969 C 183.029 58.032,183.189 58.256,183.448 58.466 C 183.851 58.793,183.885 58.792,183.687 58.462 C 183.528 58.199,183.556 58.140,183.776 58.276 C 183.952 58.385,184.037 58.571,183.964 58.690 C 183.769 59.004,185.047 60.125,185.318 59.879 C 185.444 59.765,185.463 59.817,185.361 59.997 C 185.156 60.354,187.465 62.101,187.757 61.809 C 187.851 61.714,187.929 61.802,187.929 62.003 C 187.929 62.204,188.005 62.292,188.099 62.199 C 188.192 62.105,188.455 62.215,188.683 62.443 C 188.910 62.671,189.272 62.790,189.487 62.708 C 189.702 62.625,189.812 62.664,189.731 62.795 C 189.419 63.299,192.218 63.786,195.199 63.745 C 198.985 63.695,199.177 63.675,199.177 63.341 C 199.177 63.191,199.291 63.138,199.431 63.225 C 199.802 63.454,202.253 62.430,201.999 62.151 C 201.880 62.021,201.938 62.004,202.128 62.113 C 202.536 62.348,203.936 61.449,205.030 60.249 C 205.458 59.780,205.727 59.582,205.628 59.808 C 205.530 60.034,205.823 59.798,206.280 59.283 C 206.737 58.768,207.035 58.225,206.942 58.075 C 206.850 57.925,206.903 57.882,207.061 57.980 C 207.366 58.168,208.322 56.909,208.322 56.318 C 208.322 56.125,208.432 55.967,208.567 55.967 C 208.701 55.967,208.735 55.844,208.642 55.693 C 208.549 55.542,208.610 55.418,208.779 55.418 C 208.948 55.418,209.010 55.295,208.916 55.144 C 208.823 54.993,208.885 54.870,209.053 54.870 C 209.222 54.870,209.284 54.746,209.191 54.595 C 209.097 54.444,209.166 54.321,209.344 54.321 C 209.531 54.321,209.606 54.091,209.523 53.772 C 209.444 53.470,209.477 53.284,209.597 53.358 C 209.717 53.432,209.944 52.722,210.100 51.781 C 210.433 49.776,210.503 46.640,210.214 46.638 C 210.104 46.637,209.997 46.167,209.976 45.594 C 209.934 44.446,208.862 41.701,208.455 41.701 C 208.314 41.701,208.274 41.578,208.368 41.427 C 208.461 41.276,208.406 41.152,208.247 41.152 C 208.087 41.152,207.987 41.047,208.025 40.917 C 208.148 40.495,206.280 38.120,205.973 38.310 C 205.810 38.411,205.754 38.369,205.848 38.216 C 206.087 37.829,203.919 36.137,203.496 36.380 C 203.308 36.488,203.247 36.475,203.359 36.351 C 203.642 36.039,202.542 35.314,202.152 35.555 C 201.970 35.667,201.910 35.630,202.010 35.468 C 202.188 35.180,200.738 34.547,198.765 34.052 C 197.678 33.779,192.836 33.696,192.044 33.937 M332.990 76.583 C 332.575 76.737,332.236 76.984,332.236 77.131 C 332.236 77.278,332.128 77.332,331.996 77.250 C 331.864 77.169,331.277 77.452,330.693 77.880 C 329.582 78.693,328.455 79.835,328.764 79.835 C 328.863 79.835,328.704 80.076,328.410 80.369 C 327.744 81.035,327.023 83.404,327.023 84.926 C 327.023 86.473,327.310 87.816,327.602 87.636 C 327.733 87.555,327.771 87.669,327.686 87.890 C 327.504 88.363,328.283 89.986,328.693 89.986 C 328.849 89.986,328.911 90.092,328.831 90.221 C 328.629 90.548,329.893 91.685,330.174 91.429 C 330.300 91.315,330.323 91.361,330.225 91.533 C 330.127 91.704,330.231 91.997,330.456 92.184 C 330.680 92.370,330.866 92.415,330.868 92.283 C 330.871 92.152,330.964 92.188,331.077 92.365 C 331.189 92.541,331.462 92.727,331.683 92.776 C 331.905 92.826,332.256 93.025,332.464 93.219 C 332.675 93.416,333.087 93.494,333.397 93.396 C 333.727 93.291,333.884 93.328,333.786 93.487 C 333.556 93.858,336.005 94.159,336.612 93.835 C 336.881 93.690,337.176 93.647,337.267 93.737 C 337.590 94.060,339.924 93.198,340.649 92.489 C 341.053 92.093,341.277 91.955,341.147 92.181 C 340.943 92.535,340.974 92.540,341.371 92.219 C 341.625 92.013,341.753 91.716,341.656 91.559 C 341.558 91.402,341.610 91.354,341.771 91.454 C 342.377 91.828,344.870 87.931,344.454 87.259 C 344.368 87.120,344.429 86.925,344.590 86.826 C 344.981 86.584,344.890 84.139,344.424 82.424 C 343.987 80.813,342.517 78.625,342.061 78.907 C 341.875 79.022,341.830 78.973,341.947 78.783 C 342.186 78.397,339.677 76.746,339.155 76.946 C 338.955 77.023,338.859 76.977,338.941 76.844 C 339.284 76.289,334.362 76.074,332.990 76.583 M190.856 105.807 C 190.806 105.856,190.029 105.951,189.130 106.017 C 187.319 106.150,184.268 107.171,184.510 107.562 C 184.595 107.700,184.490 107.745,184.275 107.663 C 183.835 107.494,180.384 109.987,180.384 110.475 C 180.384 110.649,180.272 110.894,180.134 111.020 C 179.987 111.154,179.969 111.079,180.089 110.837 C 180.201 110.610,179.919 110.857,179.461 111.385 C 178.664 112.306,177.269 114.778,177.113 115.546 C 177.072 115.747,176.882 116.283,176.689 116.735 C 175.942 118.494,176.150 125.334,176.959 125.606 C 177.110 125.657,177.168 125.802,177.090 125.929 C 176.905 126.228,177.517 127.572,177.838 127.572 C 177.974 127.572,178.022 127.673,177.945 127.797 C 177.661 128.258,180.644 132.362,181.072 132.098 C 181.190 132.024,181.353 132.138,181.434 132.349 C 182.044 133.937,186.844 135.842,190.535 135.959 C 193.230 136.045,196.264 135.645,196.012 135.238 C 195.942 135.124,196.113 135.090,196.392 135.163 C 196.672 135.237,197.104 135.093,197.353 134.844 C 197.602 134.595,197.805 134.465,197.805 134.555 C 197.805 134.645,198.176 134.528,198.628 134.294 C 199.081 134.059,199.451 133.740,199.451 133.584 C 199.451 133.429,199.555 133.365,199.681 133.443 C 199.807 133.521,200.332 133.206,200.847 132.743 C 201.362 132.280,201.536 132.069,201.235 132.274 C 200.729 132.618,200.716 132.609,201.068 132.161 C 201.278 131.893,201.516 131.740,201.598 131.822 C 201.817 132.041,203.297 130.545,203.129 130.274 C 203.050 130.146,203.123 130.041,203.292 130.041 C 203.461 130.041,203.521 129.915,203.425 129.760 C 203.330 129.605,203.353 129.513,203.478 129.554 C 203.602 129.596,203.762 129.506,203.834 129.355 C 203.905 129.204,204.142 128.873,204.360 128.618 C 204.974 127.901,206.087 125.084,205.924 124.660 C 205.844 124.451,205.888 124.280,206.021 124.280 C 206.427 124.280,206.704 120.145,206.337 119.558 C 206.161 119.276,206.094 118.921,206.188 118.769 C 206.418 118.396,205.765 115.740,205.485 115.913 C 205.363 115.989,205.319 115.834,205.388 115.570 C 205.653 114.539,201.695 109.234,200.986 109.671 C 200.850 109.755,200.825 109.684,200.931 109.512 C 201.292 108.928,196.844 106.489,195.199 106.370 C 194.746 106.337,194.314 106.234,194.239 106.141 C 194.092 105.960,191.007 105.655,190.856 105.807 M213.628 180.702 C 213.542 180.789,212.972 180.896,212.362 180.942 C 209.350 181.166,201.548 185.160,201.859 186.317 C 201.900 186.471,201.819 186.527,201.679 186.440 C 201.372 186.250,199.114 188.872,199.367 189.124 C 199.464 189.221,199.391 189.300,199.206 189.300 C 199.022 189.300,198.958 189.443,199.066 189.617 C 199.184 189.808,199.142 189.860,198.959 189.747 C 198.605 189.528,198.005 190.496,198.295 190.817 C 198.403 190.937,198.337 190.946,198.148 190.837 C 197.812 190.644,197.686 190.960,197.791 191.728 C 197.819 191.932,197.710 192.018,197.549 191.918 C 197.290 191.758,197.119 192.314,197.231 192.956 C 197.252 193.080,197.159 193.114,197.024 193.030 C 196.743 192.856,195.843 195.043,195.786 196.042 C 195.765 196.408,195.647 196.708,195.525 196.708 C 195.402 196.708,195.337 196.924,195.381 197.188 C 195.424 197.452,195.348 197.846,195.212 198.063 C 194.769 198.771,194.933 204.916,195.446 206.822 C 196.157 209.464,196.994 211.548,197.274 211.374 C 197.412 211.289,197.455 211.402,197.369 211.624 C 197.284 211.847,197.460 212.275,197.761 212.576 C 198.062 212.877,198.239 213.192,198.155 213.277 C 198.070 213.361,198.203 213.508,198.450 213.603 C 198.697 213.697,198.843 213.867,198.773 213.979 C 198.470 214.470,202.198 218.268,202.614 217.892 C 202.733 217.784,202.748 217.841,202.646 218.020 C 202.426 218.402,203.531 219.259,203.928 219.013 C 204.078 218.921,204.119 218.976,204.020 219.136 C 203.791 219.507,206.211 220.944,206.631 220.685 C 206.837 220.557,206.867 220.615,206.719 220.855 C 206.554 221.121,206.620 221.170,206.965 221.037 C 207.224 220.938,207.369 220.964,207.288 221.096 C 207.207 221.227,207.849 221.589,208.714 221.899 C 210.908 222.685,211.399 222.808,212.707 222.900 C 213.338 222.944,214.071 223.070,214.336 223.180 C 214.601 223.290,215.774 223.306,216.942 223.215 C 218.111 223.125,219.345 223.048,219.684 223.045 C 220.024 223.042,220.302 222.904,220.302 222.738 C 220.302 222.573,220.502 222.515,220.746 222.608 C 221.266 222.808,224.143 221.960,224.143 221.607 C 224.143 221.475,224.266 221.443,224.417 221.536 C 224.568 221.630,224.691 221.568,224.691 221.399 C 224.691 221.230,224.804 221.162,224.941 221.247 C 225.323 221.483,226.083 221.105,225.882 220.779 C 225.782 220.617,225.835 220.572,226.004 220.677 C 226.387 220.914,228.051 219.919,227.777 219.617 C 227.664 219.492,227.712 219.470,227.882 219.568 C 228.242 219.773,230.352 218.175,230.240 217.782 C 230.199 217.636,230.276 217.586,230.412 217.671 C 230.977 218.020,235.046 212.897,234.677 212.301 C 234.562 212.114,234.604 212.061,234.780 212.170 C 235.057 212.341,235.568 211.370,235.445 210.905 C 235.415 210.792,235.502 210.700,235.638 210.700 C 235.940 210.700,236.536 209.077,236.346 208.771 C 236.272 208.650,236.335 208.510,236.487 208.459 C 237.435 208.144,237.988 197.619,237.073 197.314 C 236.900 197.257,236.828 197.098,236.913 196.961 C 237.102 196.655,236.188 193.673,235.950 193.821 C 235.856 193.879,235.760 193.668,235.736 193.353 C 235.712 193.037,235.532 192.677,235.336 192.553 C 235.140 192.428,235.075 192.325,235.191 192.322 C 235.307 192.320,235.148 191.820,234.837 191.211 C 234.527 190.602,234.151 190.179,234.002 190.271 C 233.853 190.363,233.749 190.337,233.771 190.212 C 233.879 189.587,233.601 189.164,231.893 187.360 C 230.020 185.381,227.908 183.722,227.262 183.722 C 227.069 183.722,226.966 183.632,227.034 183.522 C 227.207 183.242,226.350 182.950,225.996 183.169 C 225.834 183.269,225.783 183.221,225.882 183.062 C 226.096 182.716,225.313 182.365,224.899 182.620 C 224.726 182.727,224.687 182.671,224.802 182.484 C 224.976 182.203,224.474 182.028,223.800 182.135 C 223.687 182.153,223.594 182.029,223.594 181.861 C 223.594 181.690,223.352 181.618,223.045 181.698 C 222.699 181.789,222.563 181.734,222.676 181.550 C 222.792 181.363,222.644 181.313,222.265 181.413 C 221.940 181.498,221.674 181.468,221.674 181.347 C 221.674 180.808,214.127 180.203,213.628 180.702 M155.693 214.182 C 155.391 214.246,154.959 214.372,154.733 214.461 C 154.261 214.648,153.961 214.714,153.312 214.773 C 153.058 214.796,152.657 215.009,152.420 215.246 C 152.183 215.483,151.989 215.603,151.989 215.513 C 151.989 215.242,150.293 216.189,148.879 217.249 C 146.685 218.895,143.912 223.043,143.632 225.100 C 143.591 225.404,143.465 225.870,143.352 226.136 C 143.240 226.403,143.206 226.928,143.278 227.302 C 143.350 227.677,143.287 227.984,143.139 227.984 C 142.973 227.984,142.936 228.641,143.044 229.698 C 143.139 230.641,143.217 231.697,143.216 232.045 C 143.214 232.452,143.326 232.608,143.528 232.483 C 143.725 232.361,143.768 232.410,143.643 232.612 C 143.389 233.023,143.727 234.619,144.030 234.433 C 144.154 234.356,144.202 234.509,144.135 234.773 C 143.516 237.230,150.750 243.667,154.870 244.324 C 156.887 244.646,159.937 244.781,160.424 244.569 C 160.689 244.454,161.093 244.382,161.323 244.409 C 163.241 244.633,170.258 240.433,169.639 239.432 C 169.540 239.273,169.595 239.229,169.762 239.332 C 170.376 239.712,173.340 234.457,173.005 233.582 C 172.903 233.316,172.958 233.237,173.160 233.362 C 173.374 233.494,173.425 233.367,173.320 232.965 C 173.235 232.640,173.263 232.313,173.382 232.240 C 173.678 232.057,173.664 226.612,173.368 226.612 C 173.238 226.612,173.200 226.431,173.285 226.210 C 173.489 225.680,172.605 223.045,172.223 223.045 C 172.059 223.045,172.002 222.968,172.096 222.874 C 173.598 221.372,163.252 213.207,161.342 214.388 C 161.198 214.477,161.008 214.432,160.919 214.289 C 160.761 214.033,156.776 213.952,155.693 214.182 M238.546 244.081 C 238.244 244.148,237.812 244.275,237.586 244.365 C 237.359 244.454,236.933 244.573,236.637 244.630 C 236.342 244.686,236.020 244.864,235.921 245.024 C 235.822 245.183,235.631 245.305,235.497 245.294 C 235.010 245.254,234.294 245.585,234.294 245.851 C 234.294 246.000,234.186 246.056,234.054 245.975 C 233.922 245.893,233.490 246.127,233.093 246.494 C 232.697 246.861,232.373 247.091,232.373 247.004 C 232.373 246.917,232.192 246.997,231.970 247.181 C 231.749 247.364,231.595 247.657,231.627 247.832 C 231.660 248.006,231.533 248.117,231.344 248.079 C 230.880 247.987,228.471 251.297,228.655 251.775 C 228.735 251.984,228.688 252.086,228.552 252.001 C 228.244 251.811,227.329 254.476,227.568 254.864 C 227.664 255.018,227.596 255.144,227.419 255.144 C 227.222 255.144,227.148 255.414,227.229 255.836 C 227.302 256.217,227.274 256.583,227.168 256.649 C 226.864 256.836,226.844 259.534,227.147 259.534 C 227.296 259.534,227.344 259.727,227.253 259.962 C 227.046 260.503,227.954 263.923,228.305 263.923 C 228.448 263.923,228.498 264.031,228.416 264.163 C 228.196 264.519,230.413 267.821,230.737 267.621 C 230.890 267.526,230.981 267.612,230.940 267.812 C 230.898 268.012,231.028 268.142,231.228 268.100 C 231.427 268.059,231.521 268.137,231.436 268.275 C 231.232 268.605,231.948 269.189,232.237 268.928 C 232.360 268.816,232.379 268.868,232.278 269.045 C 232.053 269.437,235.087 271.401,235.609 271.200 C 235.806 271.125,235.904 271.166,235.826 271.293 C 235.543 271.751,238.062 272.248,241.097 272.333 C 242.802 272.380,244.141 272.328,244.072 272.217 C 244.003 272.106,244.361 272.004,244.868 271.992 C 246.029 271.962,249.460 270.306,249.207 269.897 C 249.093 269.712,249.153 269.679,249.367 269.812 C 250.132 270.285,254.328 265.181,254.715 263.306 C 254.754 263.118,254.936 262.593,255.121 262.141 C 255.305 261.688,255.403 261.040,255.338 260.700 C 255.273 260.360,255.326 260.082,255.456 260.082 C 255.732 260.082,255.781 256.421,255.509 256.149 C 255.408 256.048,255.280 255.503,255.224 254.938 C 255.025 252.930,252.339 248.197,251.491 248.360 C 251.312 248.394,251.192 248.283,251.224 248.112 C 251.255 247.942,251.039 247.583,250.744 247.315 C 250.448 247.048,250.206 246.923,250.206 247.039 C 250.206 247.154,249.990 246.993,249.726 246.681 C 249.137 245.984,246.537 244.670,245.646 244.619 C 245.287 244.598,244.993 244.475,244.993 244.344 C 244.993 244.213,244.684 244.165,244.307 244.237 C 243.930 244.309,243.621 244.262,243.621 244.132 C 243.621 243.895,239.572 243.854,238.546 244.081 M98.998 252.881 C 98.920 253.777,98.888 253.909,98.665 254.266 C 98.543 254.461,98.508 254.793,98.589 255.002 C 98.669 255.212,98.639 255.422,98.523 255.469 C 98.261 255.576,96.893 261.182,96.755 262.716 C 96.699 263.335,96.572 263.974,96.472 264.135 C 96.372 264.297,96.241 265.087,96.181 265.891 C 96.121 266.695,95.992 267.551,95.895 267.793 C 95.799 268.035,95.695 269.300,95.665 270.604 C 95.635 271.908,95.518 272.975,95.405 272.976 C 95.182 272.977,95.148 274.051,95.124 281.893 C 95.102 289.240,95.156 290.809,95.428 290.809 C 95.560 290.809,95.608 291.427,95.535 292.181 C 95.451 293.054,95.510 293.553,95.697 293.553 C 95.858 293.553,95.935 293.831,95.867 294.170 C 95.666 295.178,96.058 297.953,96.374 297.757 C 96.537 297.656,96.572 297.718,96.457 297.905 C 96.213 298.299,96.557 301.276,96.827 301.109 C 96.933 301.043,96.964 301.371,96.896 301.837 C 96.820 302.354,96.877 302.619,97.043 302.516 C 97.205 302.416,97.262 302.620,97.185 303.026 C 97.104 303.448,97.182 303.704,97.391 303.704 C 97.588 303.704,97.656 303.888,97.556 304.150 C 97.461 304.395,97.880 306.500,98.486 308.828 C 99.093 311.155,99.588 313.122,99.588 313.199 C 99.588 313.276,99.681 313.281,99.794 313.212 C 99.907 313.142,100.014 313.469,100.032 313.938 C 100.050 314.407,100.205 314.837,100.377 314.895 C 100.549 314.952,100.626 315.102,100.548 315.227 C 100.384 315.492,102.152 320.528,102.342 320.338 C 102.412 320.268,102.488 320.525,102.511 320.909 C 102.534 321.294,102.707 321.704,102.896 321.820 C 103.085 321.937,103.271 322.323,103.309 322.678 C 103.380 323.345,106.039 329.220,106.388 329.482 C 106.496 329.563,106.620 329.799,106.664 330.005 C 106.795 330.626,108.950 334.431,109.170 334.431 C 109.282 334.431,109.376 334.585,109.379 334.774 C 109.386 335.236,111.262 338.304,111.433 338.133 C 111.507 338.058,111.568 338.154,111.568 338.346 C 111.568 338.843,113.049 341.015,113.388 341.015 C 113.544 341.015,113.598 341.089,113.508 341.179 C 113.132 341.554,118.568 348.566,122.410 352.659 C 123.267 353.573,124.297 354.723,124.698 355.213 C 125.099 355.704,125.559 356.025,125.719 355.925 C 125.880 355.826,125.931 355.874,125.834 356.031 C 125.644 356.339,128.629 359.035,129.022 358.910 C 129.152 358.868,129.192 358.942,129.111 359.073 C 129.030 359.205,129.355 359.671,129.835 360.109 C 130.359 360.588,130.562 360.687,130.343 360.357 C 130.144 360.055,130.372 360.240,130.851 360.768 C 131.330 361.296,131.838 361.698,131.979 361.660 C 132.120 361.622,132.205 361.696,132.167 361.825 C 132.018 362.335,138.689 367.466,139.140 367.187 C 139.322 367.075,139.379 367.114,139.276 367.280 C 139.080 367.598,145.881 372.180,146.150 371.911 C 146.241 371.820,146.494 372.000,146.712 372.311 C 146.933 372.627,147.283 372.809,147.505 372.724 C 147.724 372.640,147.839 372.674,147.761 372.800 C 147.586 373.084,152.386 375.643,152.633 375.397 C 152.731 375.298,152.812 375.369,152.812 375.553 C 152.812 375.738,152.936 375.813,153.086 375.720 C 153.237 375.627,153.361 375.664,153.361 375.802 C 153.361 376.148,158.817 378.652,159.138 378.454 C 159.280 378.366,159.396 378.432,159.396 378.601 C 159.396 378.770,159.520 378.831,159.671 378.738 C 159.822 378.645,159.945 378.706,159.945 378.875 C 159.945 379.044,160.058 379.112,160.196 379.027 C 160.334 378.942,160.488 378.983,160.539 379.119 C 160.670 379.471,167.603 381.940,167.916 381.747 C 168.059 381.658,168.176 381.731,168.176 381.909 C 168.176 382.096,168.405 382.171,168.725 382.088 C 169.027 382.009,169.219 382.032,169.152 382.140 C 168.995 382.395,171.427 383.048,171.762 382.841 C 171.902 382.755,172.016 382.804,172.016 382.950 C 172.016 383.394,182.140 385.634,182.872 385.353 C 183.088 385.270,183.265 385.331,183.265 385.489 C 183.265 385.646,183.604 385.740,184.019 385.696 C 184.434 385.653,184.909 385.700,185.074 385.802 C 185.349 385.972,186.657 386.121,191.084 386.487 C 191.989 386.562,196.001 386.623,200.000 386.623 C 203.999 386.623,208.011 386.562,208.916 386.487 C 213.343 386.121,214.651 385.972,214.926 385.802 C 215.091 385.700,215.566 385.653,215.981 385.696 C 216.396 385.740,216.735 385.646,216.735 385.489 C 216.735 385.331,216.912 385.270,217.128 385.353 C 217.860 385.634,227.984 383.394,227.984 382.950 C 227.984 382.804,228.098 382.755,228.238 382.841 C 228.573 383.048,231.005 382.395,230.848 382.140 C 230.781 382.032,230.973 382.009,231.275 382.088 C 231.595 382.171,231.824 382.096,231.824 381.909 C 231.824 381.731,231.941 381.658,232.084 381.747 C 232.397 381.940,239.330 379.471,239.461 379.119 C 239.512 378.983,239.666 378.942,239.804 379.027 C 239.942 379.112,240.055 379.044,240.055 378.875 C 240.055 378.706,240.178 378.645,240.329 378.738 C 240.480 378.831,240.604 378.770,240.604 378.601 C 240.604 378.432,240.720 378.366,240.862 378.454 C 241.183 378.652,246.639 376.148,246.639 375.802 C 246.639 375.664,246.763 375.627,246.914 375.720 C 247.064 375.813,247.188 375.738,247.188 375.553 C 247.188 375.369,247.269 375.298,247.367 375.397 C 247.639 375.669,252.405 373.068,252.211 372.754 C 252.118 372.604,252.179 372.565,252.347 372.669 C 252.659 372.862,257.294 370.141,258.205 369.229 C 258.483 368.952,258.711 368.788,258.711 368.865 C 258.711 368.943,259.204 368.680,259.808 368.280 C 260.768 367.645,261.432 366.995,260.589 367.516 C 260.391 367.638,260.346 367.591,260.470 367.390 C 260.580 367.214,260.804 367.153,260.970 367.255 C 261.135 367.357,261.572 367.082,261.941 366.642 C 262.310 366.203,262.512 366.025,262.391 366.247 C 262.270 366.468,262.935 366.049,263.870 365.315 C 264.805 364.580,265.569 363.874,265.569 363.746 C 265.569 363.617,265.703 363.512,265.866 363.512 C 266.384 363.512,268.589 361.542,268.405 361.244 C 268.306 361.083,268.360 361.039,268.528 361.143 C 268.693 361.245,268.939 361.130,269.075 360.887 C 269.211 360.644,269.435 360.443,269.572 360.442 C 269.709 360.440,269.788 360.319,269.746 360.172 C 269.705 360.025,269.781 359.972,269.915 360.055 C 270.239 360.256,271.117 359.274,270.851 359.008 C 270.738 358.895,270.771 358.843,270.924 358.893 C 271.375 359.041,273.807 356.843,276.527 353.830 C 277.917 352.289,279.484 350.566,280.009 350.000 C 280.552 349.415,280.880 348.834,280.769 348.654 C 280.656 348.471,280.694 348.412,280.859 348.514 C 281.338 348.810,287.635 340.347,287.331 339.815 C 287.234 339.645,287.258 339.600,287.384 339.714 C 287.689 339.991,289.774 336.674,289.537 336.290 C 289.434 336.123,289.479 336.070,289.641 336.170 C 289.957 336.366,290.383 335.607,290.286 335.020 C 290.252 334.817,290.336 334.720,290.474 334.805 C 290.786 334.998,293.649 329.869,293.428 329.512 C 293.339 329.369,293.446 329.152,293.665 329.029 C 294.143 328.761,295.502 325.921,295.305 325.602 C 295.229 325.478,295.297 325.377,295.457 325.377 C 295.617 325.377,295.748 325.130,295.748 324.829 C 295.748 324.527,295.854 324.280,295.984 324.280 C 296.325 324.280,297.429 321.266,297.215 320.920 C 297.116 320.760,297.153 320.702,297.297 320.791 C 297.604 320.981,299.399 316.409,299.166 316.031 C 299.079 315.890,299.117 315.775,299.252 315.775 C 299.551 315.775,300.169 313.854,299.972 313.535 C 299.894 313.409,299.941 313.306,300.076 313.306 C 300.391 313.306,301.299 310.066,301.082 309.715 C 300.992 309.569,299.357 309.439,297.441 309.426 C 289.929 309.376,288.340 309.319,288.340 309.102 C 288.340 308.978,287.291 308.916,286.008 308.965 C 284.725 309.014,283.675 308.954,283.676 308.833 C 283.676 308.712,282.905 308.609,281.962 308.604 C 279.803 308.593,277.928 308.463,274.623 308.094 C 273.189 307.934,271.770 307.834,271.468 307.871 C 271.166 307.909,270.788 307.857,270.627 307.757 C 270.467 307.657,269.294 307.516,268.021 307.443 C 266.748 307.371,265.521 307.250,265.295 307.176 C 264.506 306.916,259.780 306.432,259.532 306.586 C 259.394 306.671,259.061 306.619,258.790 306.472 C 258.156 306.125,254.082 305.570,253.737 305.783 C 253.592 305.873,253.322 305.819,253.135 305.665 C 252.804 305.390,250.674 305.042,248.903 304.973 C 248.412 304.954,248.011 304.832,248.011 304.701 C 248.011 304.571,247.641 304.519,247.188 304.585 C 246.735 304.652,246.365 304.626,246.365 304.528 C 246.365 304.280,243.190 303.713,242.522 303.841 C 242.221 303.899,241.975 303.855,241.975 303.743 C 241.975 303.479,238.746 302.809,238.426 303.007 C 238.291 303.090,238.140 303.058,238.089 302.934 C 237.967 302.637,233.774 301.733,233.449 301.934 C 233.310 302.020,233.196 301.945,233.196 301.767 C 233.196 301.570,232.926 301.497,232.501 301.578 C 232.118 301.651,231.877 301.639,231.965 301.552 C 232.170 301.346,227.402 300.121,226.972 300.269 C 226.794 300.330,226.608 300.289,226.561 300.178 C 226.431 299.871,222.241 298.722,221.938 298.909 C 221.792 298.999,221.674 298.956,221.674 298.815 C 221.674 298.517,219.484 297.907,219.152 298.112 C 219.030 298.187,218.930 298.104,218.930 297.927 C 218.930 297.739,218.700 297.664,218.381 297.748 C 218.079 297.827,217.892 297.794,217.966 297.675 C 218.134 297.403,215.903 296.819,215.543 297.041 C 215.398 297.131,215.367 297.062,215.474 296.887 C 215.654 296.596,215.148 296.457,214.060 296.497 C 213.872 296.504,213.717 296.393,213.717 296.250 C 213.717 296.107,213.602 296.061,213.462 296.147 C 213.322 296.234,213.135 296.190,213.048 296.048 C 212.864 295.750,207.713 293.949,207.202 294.004 C 207.013 294.024,206.859 293.921,206.859 293.774 C 206.859 293.627,206.705 293.558,206.518 293.621 C 206.331 293.683,206.006 293.563,205.797 293.353 C 205.588 293.144,205.247 293.038,205.040 293.117 C 204.833 293.196,204.664 293.161,204.664 293.038 C 204.664 292.695,200.271 291.055,199.909 291.263 C 199.733 291.364,199.681 291.344,199.793 291.220 C 200.038 290.950,197.857 289.922,197.503 290.141 C 197.367 290.224,197.257 290.177,197.257 290.036 C 197.257 289.754,195.779 289.072,195.169 289.072 C 194.959 289.072,194.787 288.956,194.787 288.814 C 194.787 288.672,194.596 288.629,194.362 288.719 C 194.127 288.809,194.004 288.773,194.087 288.638 C 194.170 288.504,193.868 288.265,193.415 288.107 C 192.963 287.949,192.591 287.906,192.588 288.012 C 192.586 288.117,192.474 288.029,192.339 287.816 C 192.127 287.481,191.795 287.378,190.558 287.266 C 190.420 287.253,190.387 287.163,190.485 287.065 C 190.741 286.808,184.637 283.918,184.292 284.131 C 184.110 284.244,184.086 284.176,184.228 283.946 C 184.392 283.680,184.326 283.631,183.981 283.764 C 183.722 283.863,183.572 283.846,183.646 283.725 C 183.837 283.416,179.730 281.430,179.365 281.655 C 179.200 281.757,179.142 281.716,179.236 281.564 C 179.448 281.220,178.121 280.584,177.715 280.835 C 177.546 280.939,177.497 280.890,177.602 280.721 C 177.761 280.464,176.737 279.913,176.437 280.093 C 176.378 280.128,176.255 280.039,176.162 279.895 C 175.964 279.586,173.114 278.115,173.114 278.322 C 173.114 278.400,172.857 278.207,172.544 277.894 C 172.230 277.580,171.792 277.394,171.569 277.479 C 171.310 277.579,171.235 277.521,171.361 277.316 C 171.494 277.102,171.404 277.058,171.087 277.179 C 170.828 277.279,170.679 277.258,170.756 277.134 C 170.948 276.823,169.033 275.941,168.663 276.170 C 168.499 276.271,168.442 276.229,168.536 276.077 C 168.748 275.733,167.421 275.097,167.015 275.348 C 166.851 275.449,166.797 275.404,166.896 275.245 C 167.044 275.006,166.408 274.672,165.799 274.670 C 165.707 274.670,165.555 274.551,165.463 274.406 C 165.242 274.059,160.219 271.546,160.219 271.782 C 160.219 271.882,159.980 271.748,159.688 271.483 C 159.389 271.213,159.010 271.093,158.823 271.209 C 158.627 271.330,158.559 271.301,158.660 271.139 C 158.872 270.795,157.544 270.158,157.139 270.409 C 156.976 270.510,156.916 270.473,157.006 270.328 C 157.216 269.989,150.399 266.879,149.975 267.121 C 149.800 267.221,149.749 267.202,149.862 267.078 C 150.102 266.813,149.150 266.364,143.680 264.164 C 141.449 263.266,139.515 262.598,139.382 262.680 C 139.250 262.762,139.100 262.712,139.049 262.568 C 138.931 262.232,132.809 260.035,132.509 260.220 C 132.384 260.297,132.236 260.219,132.179 260.047 C 132.121 259.876,131.679 259.720,131.196 259.703 C 130.712 259.685,130.316 259.598,130.316 259.508 C 130.316 259.348,128.365 258.681,127.572 258.570 C 127.346 258.538,126.950 258.423,126.694 258.313 C 126.437 258.203,126.078 258.205,125.897 258.317 C 125.710 258.432,125.638 258.405,125.731 258.255 C 125.914 257.960,121.387 256.681,121.002 256.919 C 120.869 257.001,120.719 256.957,120.668 256.821 C 120.575 256.571,112.660 254.645,111.032 254.476 C 110.547 254.426,109.966 254.318,109.739 254.236 C 108.862 253.919,104.233 253.203,103.998 253.348 C 103.862 253.432,103.709 253.377,103.659 253.226 C 103.608 253.074,102.747 252.919,101.744 252.881 C 100.742 252.843,99.978 252.719,100.046 252.606 C 100.114 252.493,99.915 252.401,99.605 252.401 C 99.265 252.401,99.023 252.592,98.998 252.881 M151.473 299.105 C 151.567 299.250,151.956 299.387,152.338 299.410 C 152.721 299.432,152.982 299.535,152.919 299.637 C 152.823 299.793,153.914 300.291,154.111 300.182 C 154.674 299.870,158.391 304.718,158.713 306.186 C 158.811 306.632,158.985 306.996,159.100 306.996 C 160.257 306.996,158.758 314.124,157.184 316.102 C 156.741 316.659,156.373 317.214,156.367 317.336 C 156.355 317.551,153.793 319.277,152.675 319.824 C 151.263 320.514,146.502 321.157,146.502 320.657 C 146.502 320.502,146.197 320.433,145.824 320.505 C 145.409 320.584,145.213 320.526,145.319 320.356 C 145.424 320.186,145.261 320.138,144.898 320.233 C 144.573 320.318,144.368 320.289,144.442 320.168 C 144.557 319.983,143.851 319.685,143.147 319.622 C 143.037 319.612,142.424 319.122,141.786 318.532 C 141.147 317.943,140.508 317.532,140.366 317.620 C 140.224 317.708,140.189 317.648,140.289 317.485 C 140.390 317.323,140.184 316.965,139.833 316.689 C 139.482 316.412,139.184 316.125,139.170 316.049 C 139.082 315.562,138.418 314.403,138.228 314.403 C 138.101 314.403,138.025 314.311,138.059 314.198 C 138.093 314.084,137.956 313.416,137.755 312.712 C 137.506 311.837,137.443 310.666,137.558 309.008 C 137.782 305.757,137.832 305.385,138.028 305.506 C 138.222 305.626,139.266 303.407,139.163 303.092 C 139.126 302.976,139.195 302.912,139.317 302.949 C 139.675 303.059,141.273 301.431,141.094 301.140 C 141.004 300.994,141.065 300.959,141.230 301.061 C 141.395 301.163,141.641 301.047,141.777 300.804 C 141.913 300.561,142.137 300.357,142.274 300.350 C 142.621 300.333,144.976 299.212,145.068 299.020 C 145.198 298.749,151.295 298.830,151.473 299.105 M255.998 316.910 C 256.811 317.082,257.743 317.236,258.070 317.253 C 258.397 317.270,258.614 317.335,258.551 317.398 C 258.488 317.461,259.023 317.852,259.740 318.267 C 260.456 318.683,261.437 319.389,261.918 319.838 C 262.400 320.287,262.883 320.574,262.991 320.478 C 263.099 320.381,263.105 320.448,263.002 320.626 C 262.899 320.807,263.091 321.142,263.438 321.386 C 263.781 321.625,264.022 321.884,263.975 321.960 C 263.844 322.175,264.819 324.267,264.999 324.157 C 265.086 324.104,265.181 324.498,265.209 325.031 C 265.238 325.565,265.367 326.107,265.495 326.236 C 265.995 326.735,265.343 331.146,264.506 332.935 C 264.061 333.885,263.779 334.754,263.879 334.865 C 263.979 334.976,263.906 334.979,263.717 334.870 C 263.404 334.690,263.244 335.014,263.349 335.617 C 263.370 335.741,263.273 335.772,263.131 335.685 C 262.990 335.597,262.350 336.113,261.708 336.830 C 261.067 337.547,260.646 337.956,260.773 337.738 C 260.913 337.497,260.688 337.565,260.200 337.910 C 259.758 338.223,258.717 338.710,257.888 338.993 C 257.058 339.275,256.347 339.569,256.309 339.646 C 255.853 340.563,249.446 339.011,247.277 337.458 C 246.549 336.937,245.830 336.547,245.679 336.591 C 245.528 336.635,245.488 336.588,245.590 336.486 C 245.691 336.385,245.350 335.726,244.832 335.023 C 243.478 333.188,243.494 333.213,243.382 332.774 C 243.326 332.553,243.118 331.756,242.919 331.001 C 242.337 328.784,242.327 327.545,242.875 325.652 C 243.159 324.671,243.408 323.661,243.428 323.408 C 243.448 323.155,243.553 323.003,243.660 323.069 C 243.837 323.179,244.154 322.527,244.170 322.020 C 244.174 321.909,244.965 321.084,245.930 320.187 C 246.894 319.290,247.633 318.486,247.572 318.400 C 247.512 318.314,247.533 318.295,247.620 318.357 C 247.707 318.418,248.439 318.167,249.246 317.797 C 251.713 316.668,253.647 316.414,255.998 316.910 M202.421 335.055 C 202.899 335.089,203.291 335.222,203.292 335.352 C 203.292 335.481,203.477 335.516,203.704 335.429 C 203.930 335.342,204.115 335.360,204.116 335.468 C 204.116 335.577,204.659 336.008,205.322 336.427 C 206.956 337.460,208.687 339.390,209.444 341.025 C 209.789 341.768,210.170 342.286,210.292 342.176 C 210.414 342.065,210.428 342.124,210.324 342.306 C 210.219 342.487,210.300 343.355,210.503 344.235 C 210.833 345.660,210.817 346.070,210.360 348.019 C 210.078 349.222,209.828 350.413,209.803 350.666 C 209.779 350.919,209.675 351.074,209.572 351.010 C 209.301 350.843,209.019 351.711,209.232 352.056 C 209.332 352.217,209.284 352.269,209.126 352.171 C 208.840 351.994,207.780 353.314,207.895 353.704 C 207.929 353.817,207.855 353.879,207.732 353.841 C 207.507 353.772,205.484 355.421,205.575 355.598 C 205.602 355.650,205.584 355.673,205.535 355.649 C 205.485 355.625,204.749 355.924,203.899 356.313 C 202.460 356.971,196.982 357.666,196.982 357.190 C 196.982 357.044,194.681 356.359,194.338 356.403 C 194.242 356.415,194.087 356.322,193.995 356.195 C 193.654 355.726,191.832 354.487,191.691 354.628 C 191.611 354.708,191.466 354.523,191.368 354.217 C 191.271 353.910,190.818 353.345,190.362 352.961 C 189.906 352.577,189.614 352.263,189.713 352.263 C 189.813 352.263,189.640 351.852,189.329 351.349 C 187.616 348.578,187.495 344.290,189.043 341.256 C 189.347 340.660,189.527 340.063,189.443 339.927 C 189.360 339.792,189.436 339.592,189.613 339.483 C 189.830 339.348,189.862 339.408,189.710 339.670 C 189.438 340.138,189.398 340.178,191.314 338.067 C 192.170 337.124,192.961 336.332,193.074 336.307 C 193.186 336.281,193.957 335.955,194.787 335.581 C 196.325 334.888,201.048 334.316,201.392 334.781 C 201.479 334.898,201.942 335.022,202.421 335.055 " stroke="none" fill="#abcc44" fill-rule="evenodd"></path><path id="path1" d="M140.576 57.996 C 136.892 59.711,136.008 61.631,135.857 68.244 L 135.742 73.251 140.042 73.251 L 144.341 73.251 144.183 74.417 C 144.096 75.058,142.979 87.620,141.700 102.332 C 138.977 133.667,139.410 130.738,137.379 131.560 L 135.800 132.199 114.471 117.596 C 102.740 109.565,92.987 102.900,92.799 102.785 C 92.143 102.383,58.694 129.690,58.969 130.404 C 59.095 130.732,63.118 140.569,67.908 152.263 C 72.699 163.957,76.733 173.854,76.873 174.256 C 77.105 174.918,76.929 175.225,74.980 177.548 C 70.318 183.105,65.378 189.898,61.887 195.552 C 60.037 198.548,59.962 198.628,59.006 198.623 C 58.466 198.621,49.012 198.376,37.997 198.080 C 26.982 197.783,16.914 197.539,15.623 197.536 L 13.276 197.531 6.638 217.805 C 2.987 228.955,0.000 238.246,0.000 238.450 C -0.000 238.655,8.533 244.748,18.963 251.990 L 37.926 265.158 37.749 267.490 C 37.035 276.887,37.034 287.231,37.747 296.298 L 37.931 298.632 18.969 311.799 C 8.541 319.041,0.006 325.135,0.004 325.343 C 0.002 325.550,2.987 334.840,6.638 345.988 L 13.276 366.255 15.760 366.252 C 17.126 366.250,27.380 366.005,38.546 365.707 C 49.712 365.410,59.106 365.165,59.422 365.162 C 59.860 365.159,60.430 365.867,61.820 368.142 C 65.159 373.605,70.599 381.088,74.972 386.234 C 76.378 387.887,77.098 388.954,77.011 389.251 C 76.936 389.505,72.899 399.403,68.039 411.248 C 63.179 423.093,59.097 433.057,58.968 433.391 C 58.732 433.998,91.693 461.093,92.571 461.015 C 92.742 460.999,102.539 454.376,114.343 446.297 L 135.803 431.608 139.164 432.975 C 146.198 435.838,156.892 439.170,164.069 440.735 L 167.507 441.484 173.059 459.082 C 176.113 468.761,179.169 478.440,179.851 480.590 L 181.091 484.499 200.000 484.499 L 218.909 484.499 220.149 480.590 C 220.831 478.440,223.887 468.761,226.941 459.082 L 232.493 441.484 235.931 440.735 C 243.108 439.170,253.802 435.838,260.836 432.975 L 264.197 431.608 285.657 446.297 C 297.461 454.376,307.258 460.999,307.429 461.015 C 308.307 461.093,341.268 433.998,341.032 433.391 C 340.903 433.057,336.821 423.093,331.961 411.248 C 327.101 399.403,323.064 389.505,322.989 389.251 C 322.902 388.954,323.622 387.887,325.028 386.234 C 329.401 381.088,334.841 373.605,338.180 368.142 C 339.570 365.867,340.140 365.159,340.578 365.162 C 340.894 365.165,350.288 365.410,361.454 365.707 C 372.620 366.005,382.874 366.250,384.241 366.252 L 386.727 366.255 393.364 345.994 C 397.014 334.850,399.998 325.560,399.996 325.349 C 399.994 325.138,391.459 319.041,381.031 311.799 L 362.069 298.632 362.253 296.298 C 362.966 287.231,362.965 276.887,362.251 267.490 L 362.074 265.158 381.037 251.990 C 391.467 244.748,400.000 238.655,400.000 238.450 C 400.000 238.246,397.013 228.955,393.362 217.805 L 386.724 197.531 384.377 197.536 C 383.086 197.539,373.018 197.783,362.003 198.080 C 350.988 198.376,341.534 198.621,340.994 198.623 C 340.038 198.628,339.963 198.548,338.113 195.552 C 334.622 189.898,329.682 183.105,325.020 177.548 C 323.071 175.225,322.895 174.918,323.127 174.256 C 323.267 173.854,327.301 163.957,332.092 152.263 C 336.882 140.569,340.905 130.732,341.031 130.404 C 341.306 129.690,307.857 102.383,307.201 102.785 C 307.013 102.900,297.260 109.565,285.529 117.596 L 264.200 132.199 262.621 131.560 C 260.590 130.738,261.023 133.667,258.300 102.332 C 257.021 87.620,255.904 75.058,255.817 74.417 L 255.659 73.251 259.958 73.251 L 264.258 73.251 264.154 68.244 C 264.037 62.628,263.748 61.571,261.786 59.610 C 259.611 57.435,259.115 57.345,249.314 57.342 L 240.604 57.339 240.604 63.237 L 240.604 69.136 231.319 69.136 C 219.576 69.136,218.445 69.556,218.721 73.812 C 218.970 77.642,219.812 77.915,231.362 77.915 L 240.604 77.915 240.604 86.557 L 240.604 95.199 231.070 95.200 C 219.481 95.201,218.658 95.483,218.658 99.451 C 218.658 103.420,219.481 103.701,231.070 103.703 L 240.604 103.704 240.604 112.332 L 240.604 120.961 231.021 121.043 C 220.305 121.135,220.724 121.058,219.249 123.208 C 218.422 124.413,218.504 126.752,219.419 128.036 C 220.620 129.723,220.920 129.767,231.249 129.767 L 240.604 129.767 240.604 138.409 L 240.604 147.051 231.334 147.051 C 222.260 147.051,222.039 147.064,220.860 147.668 C 217.976 149.147,217.873 153.050,220.664 155.119 C 221.410 155.672,221.792 155.696,231.016 155.771 L 240.593 155.850 240.667 161.757 L 240.741 167.664 244.719 169.248 C 320.375 199.380,345.427 294.058,294.576 357.674 C 246.302 418.067,153.698 418.067,105.424 357.674 C 54.573 294.059,79.624 199.383,155.281 169.248 L 159.259 167.664 159.329 112.501 L 159.398 57.339 150.687 57.342 C 142.095 57.344,141.956 57.353,140.576 57.996 " stroke="none" fill="#147c4c" fill-rule="evenodd"></path><path id="path2" d="" stroke="none" fill="#a8d444" fill-rule="evenodd"></path><path id="path3" d="" stroke="none" fill="#38ac48" fill-rule="evenodd"></path><path id="path4" d="" stroke="none" fill="#3c7c48" fill-rule="evenodd"></path></g></svg>